<svg width="50" height="49" viewBox="0 0 50 49" fill="none" xmlns="http://www.w3.org/2000/svg">
<path d="M24.6852 0.0937824C11.2141 0.0937824 0.296387 11.0205 0.296387 24.5029C0.296387 37.9853 11.2141 48.912 24.6852 48.912C38.1563 48.912 49.074 37.9853 49.074 24.5029C49.074 11.0205 38.1563 0.0937824 24.6852 0.0937824ZM24.6852 46.6359C12.4879 46.6359 2.57066 36.7046 2.57066 24.5029C2.57066 12.2954 12.4937 2.36995 24.6852 2.36995C36.8825 2.36995 46.7997 12.3013 46.7997 24.5029C46.7997 36.7046 36.8767 46.6359 24.6852 46.6359Z" fill="black"/>
<path d="M12.9355 35.2376L18.3042 32.1348V38.1832L41.9834 24.5029L18.3042 10.8226V16.8711L12.9355 13.7682V35.2376ZM20.7588 21.1207L26.6045 24.4971L20.7588 27.8735V21.1207ZM20.7588 30.7143L20.8286 30.6736L31.5136 24.4971L20.7588 18.2798V15.0722L37.0684 24.4971L20.7588 33.9219V30.7143ZM15.3901 18.0237L18.2984 19.7061V29.2997L15.3901 30.9821V18.0237Z" fill="black"/>
</svg>
