<svg width="51" height="32" viewBox="0 0 51 32" fill="none" xmlns="http://www.w3.org/2000/svg">
<path fill-rule="evenodd" clip-rule="evenodd" d="M14.2512 8.2284L19.3118 3.15035C22.6505 -0.199717 28.0686 -0.199717 31.4071 3.15035L50.9187 22.7209L44.7208 28.9401C41.3822 32.2902 35.9642 32.2902 32.6256 28.9401L19.1819 15.4502C18.9463 15.2138 18.6945 14.9937 18.4346 14.79C17.3217 13.82 16.0707 13.0212 14.6979 12.4506C13.5038 11.9535 12.2692 11.6355 11.002 11.4889L13.1139 9.36955L14.2512 8.2284ZM1.4817 28.4415C1.92034 29.4848 2.55394 30.4304 3.35 31.2292L15.4371 19.1005C14.641 18.2935 13.6988 17.6578 12.659 17.2258C11.6274 16.7937 10.5145 16.5655 9.38544 16.5655C8.25634 16.5655 7.14347 16.7856 6.10372 17.2176C5.06397 17.6414 4.12169 18.2772 3.32563 19.0761C2.5377 19.8748 1.9041 20.8203 1.47358 21.8636C1.04305 22.9069 0.82373 24.0236 0.82373 25.1567C0.82373 26.2897 1.05118 27.4064 1.4817 28.4415Z" fill="black"/>
</svg>
