<svg width="1110" height="166" viewBox="0 0 1110 166" fill="none" xmlns="http://www.w3.org/2000/svg">
<g clip-path="url(#clip0_2_16)">
<path d="M139.609 100.245C139.609 108.38 138.071 116.036 134.995 123.214C131.919 130.323 127.715 136.544 122.383 141.876C117.051 147.14 110.796 151.31 103.618 154.386C96.5088 157.462 88.8867 159 80.752 159C72.6172 159 64.9609 157.462 57.7832 154.386C50.6738 151.31 44.4531 147.14 39.1211 141.876C33.8574 136.544 29.6875 130.323 26.6113 123.214C23.5352 116.036 21.9971 108.38 21.9971 100.245V11.959H51.3232V100.245C51.3232 104.278 52.0752 108.072 53.5791 111.627C55.1514 115.182 57.2705 118.292 59.9365 120.958C62.6025 123.624 65.7129 125.743 69.2676 127.315C72.8906 128.819 76.7188 129.571 80.752 129.571C84.7852 129.571 88.5791 128.819 92.1338 127.315C95.7568 125.743 98.9014 123.624 101.567 120.958C104.233 118.292 106.318 115.182 107.822 111.627C109.395 108.072 110.181 104.278 110.181 100.245V11.959H139.609V100.245ZM217.231 159C210.464 159 204.106 157.735 198.159 155.206C192.212 152.608 186.982 149.088 182.471 144.645C178.027 140.133 174.507 134.903 171.909 128.956C169.38 123.009 168.115 116.651 168.115 109.884V77.2764H154.478V49.3857H168.115V5.49902H196.006V49.3857H238.457V77.2764H196.006V109.884C196.006 112.823 196.553 115.592 197.646 118.189C198.74 120.719 200.244 122.94 202.158 124.854C204.072 126.769 206.328 128.307 208.926 129.469C211.523 130.562 214.292 131.109 217.231 131.109H238.457V159H217.231ZM360.581 159H353.813L342.944 143.927C340.278 146.319 337.441 148.575 334.434 150.694C331.494 152.745 328.384 154.557 325.103 156.129C321.821 157.633 318.438 158.829 314.951 159.718C311.533 160.606 308.047 161.051 304.492 161.051C296.768 161.051 289.487 159.752 282.651 157.154C275.884 154.557 269.937 150.797 264.81 145.875C259.751 140.885 255.752 134.801 252.812 127.623C249.873 120.445 248.403 112.276 248.403 103.116C248.403 94.5713 249.873 86.7441 252.812 79.6348C255.752 72.457 259.751 66.3047 264.81 61.1777C269.937 56.0508 275.884 52.0859 282.651 49.2832C289.487 46.4121 296.768 44.9766 304.492 44.9766C308.047 44.9766 311.567 45.4209 315.054 46.3096C318.54 47.1982 321.924 48.4287 325.205 50.001C328.486 51.5732 331.597 53.4189 334.536 55.5381C337.544 57.6572 340.347 59.9473 342.944 62.4082L353.813 49.3857H360.581V159ZM332.383 103.116C332.383 99.2881 331.631 95.5967 330.127 92.042C328.691 88.4189 326.709 85.2402 324.18 82.5059C321.65 79.7031 318.677 77.4814 315.259 75.8408C311.909 74.1318 308.32 73.2773 304.492 73.2773C300.664 73.2773 297.041 73.9268 293.623 75.2256C290.273 76.5244 287.334 78.4385 284.805 80.9678C282.344 83.4971 280.396 86.6416 278.96 90.4014C277.524 94.0928 276.807 98.3311 276.807 103.116C276.807 107.901 277.524 112.174 278.96 115.934C280.396 119.625 282.344 122.735 284.805 125.265C287.334 127.794 290.273 129.708 293.623 131.007C297.041 132.306 300.664 132.955 304.492 132.955C308.32 132.955 311.909 132.135 315.259 130.494C318.677 128.785 321.65 126.563 324.18 123.829C326.709 121.026 328.691 117.848 330.127 114.293C331.631 110.67 332.383 106.944 332.383 103.116ZM410.005 159H382.012V5.49902H410.005V54C413.354 51.4707 416.807 49.6934 420.361 48.668C423.916 47.5742 427.539 47.0273 431.23 47.0273C437.998 47.0273 444.355 48.3262 450.303 50.9238C456.25 53.4531 461.411 56.9736 465.786 61.4854C470.229 65.9287 473.716 71.1582 476.245 77.1738C478.843 83.1211 480.142 89.4785 480.142 96.2461V159H451.943V96.2461H452.148C452.148 93.375 451.602 90.6748 450.508 88.1455C449.414 85.5479 447.91 83.292 445.996 81.3779C444.082 79.4639 441.86 77.96 439.331 76.8662C436.802 75.7725 434.102 75.2256 431.23 75.2256C428.291 75.2256 425.522 75.7725 422.925 76.8662C420.327 77.96 418.071 79.4639 416.157 81.3779C414.243 83.292 412.739 85.5479 411.646 88.1455C410.552 90.6748 410.005 93.375 410.005 96.2461V159ZM620.928 85.4795C620.928 92.2471 620.039 98.7754 618.262 105.064C616.553 111.285 614.092 117.13 610.879 122.599C607.666 127.999 603.838 132.955 599.395 137.467C594.951 141.91 589.995 145.738 584.526 148.951C579.058 152.164 573.179 154.659 566.89 156.437C560.669 158.146 554.175 159 547.407 159H503.11V11.959H547.407C554.175 11.959 560.669 12.8477 566.89 14.625C573.179 16.334 579.058 18.7949 584.526 22.0078C589.995 25.2207 594.951 29.083 599.395 33.5947C603.838 38.0381 607.666 42.9941 610.879 48.4629C614.092 53.8633 616.553 59.708 618.262 65.9971C620.039 72.2178 620.928 78.7119 620.928 85.4795ZM591.499 85.4795C591.499 79.3955 590.337 73.6875 588.013 68.3555C585.757 63.0234 582.612 58.375 578.579 54.4102C574.614 50.377 569.932 47.1982 564.531 44.874C559.199 42.5498 553.491 41.3877 547.407 41.3877H532.744V129.571H547.407C553.491 129.571 559.199 128.443 564.531 126.188C569.932 123.863 574.614 120.719 578.579 116.754C582.612 112.721 585.757 108.038 588.013 102.706C590.337 97.3057 591.499 91.5635 591.499 85.4795ZM681.221 132.135C682.314 132.477 683.408 132.716 684.502 132.853C685.596 132.921 686.689 132.955 687.783 132.955C690.518 132.955 693.149 132.579 695.679 131.827C698.208 131.075 700.566 130.016 702.754 128.648C705.01 127.213 706.992 125.504 708.701 123.521C710.479 121.471 711.914 119.215 713.008 116.754L733.516 137.364C730.918 141.056 727.91 144.371 724.492 147.311C721.143 150.25 717.485 152.745 713.521 154.796C709.624 156.847 705.488 158.385 701.113 159.41C696.807 160.504 692.363 161.051 687.783 161.051C680.059 161.051 672.778 159.615 665.942 156.744C659.175 153.873 653.228 149.874 648.101 144.747C643.042 139.62 639.043 133.536 636.104 126.495C633.164 119.386 631.694 111.593 631.694 103.116C631.694 94.4346 633.164 86.5049 636.104 79.3271C639.043 72.1494 643.042 66.0312 648.101 60.9727C653.228 55.9141 659.175 51.9834 665.942 49.1807C672.778 46.3779 680.059 44.9766 687.783 44.9766C692.363 44.9766 696.841 45.5234 701.216 46.6172C705.591 47.7109 709.727 49.2832 713.623 51.334C717.588 53.3848 721.279 55.9141 724.697 58.9219C728.115 61.8613 731.123 65.1768 733.721 68.8682L681.221 132.135ZM695.576 74.4053C694.277 73.9268 692.979 73.6191 691.68 73.4824C690.449 73.3457 689.15 73.2773 687.783 73.2773C683.955 73.2773 680.332 73.9951 676.914 75.4307C673.564 76.7979 670.625 78.7803 668.096 81.3779C665.635 83.9756 663.687 87.1201 662.251 90.8115C660.815 94.4346 660.098 98.5361 660.098 103.116C660.098 104.142 660.132 105.304 660.2 106.603C660.337 107.901 660.508 109.234 660.713 110.602C660.986 111.9 661.294 113.165 661.636 114.396C661.978 115.626 662.422 116.72 662.969 117.677L695.576 74.4053ZM777.607 159L735.771 49.1807H767.661L791.655 117.677L815.547 49.1807H847.539L805.703 159H777.607ZM978.584 143.927C971.748 149.806 964.092 154.317 955.615 157.462C947.139 160.606 938.354 162.179 929.263 162.179C922.29 162.179 915.557 161.256 909.062 159.41C902.637 157.633 896.587 155.104 890.913 151.822C885.308 148.473 880.181 144.474 875.532 139.825C870.884 135.177 866.885 130.05 863.535 124.444C860.254 118.771 857.69 112.721 855.845 106.295C854.067 99.8008 853.179 93.0674 853.179 86.0947C853.179 79.1221 854.067 72.3887 855.845 65.8945C857.69 59.4004 860.254 53.3506 863.535 47.7451C866.885 42.0713 870.884 36.9102 875.532 32.2617C880.181 27.6133 885.308 23.6484 890.913 20.3672C896.587 17.0176 902.637 14.4541 909.062 12.6768C915.557 10.8311 922.29 9.9082 929.263 9.9082C938.354 9.9082 947.139 11.4805 955.615 14.625C964.092 17.7012 971.748 22.2129 978.584 28.1602L962.998 53.7949C958.691 49.1465 953.599 45.5918 947.72 43.1309C941.841 40.6016 935.688 39.3369 929.263 39.3369C922.769 39.3369 916.685 40.5674 911.011 43.0283C905.337 45.4893 900.381 48.8389 896.143 53.0771C891.904 57.2471 888.555 62.2031 886.094 67.9453C883.633 73.6191 882.402 79.6689 882.402 86.0947C882.402 92.5205 883.633 98.5703 886.094 104.244C888.555 109.85 891.904 114.771 896.143 119.01C900.381 123.248 905.337 126.598 911.011 129.059C916.685 131.52 922.769 132.75 929.263 132.75C935.688 132.75 941.841 131.52 947.72 129.059C953.599 126.529 958.691 122.94 962.998 118.292L978.584 143.927ZM1094.97 103.116C1094.97 111.319 1093.5 118.976 1090.56 126.085C1087.62 133.126 1083.62 139.244 1078.56 144.439C1073.5 149.566 1067.55 153.634 1060.72 156.642C1053.95 159.581 1046.67 161.051 1038.88 161.051C1031.15 161.051 1023.87 159.581 1017.04 156.642C1010.27 153.634 1004.32 149.566 999.194 144.439C994.136 139.244 990.137 133.126 987.197 126.085C984.258 118.976 982.788 111.319 982.788 103.116C982.788 94.7764 984.258 87.0518 987.197 79.9424C990.137 72.833 994.136 66.7148 999.194 61.5879C1004.32 56.3926 1010.27 52.3252 1017.04 49.3857C1023.87 46.4463 1031.15 44.9766 1038.88 44.9766C1046.67 44.9766 1053.95 46.3779 1060.72 49.1807C1067.55 51.915 1073.5 55.8457 1078.56 60.9727C1083.62 66.0312 1087.62 72.1494 1090.56 79.3271C1093.5 86.4365 1094.97 94.3662 1094.97 103.116ZM1066.77 103.116C1066.77 98.6045 1066.02 94.5371 1064.51 90.9141C1063.08 87.2227 1061.09 84.0781 1058.56 81.4805C1056.04 78.8145 1053.06 76.7979 1049.64 75.4307C1046.29 73.9951 1042.71 73.2773 1038.88 73.2773C1035.05 73.2773 1031.43 73.9951 1028.01 75.4307C1024.66 76.7979 1021.72 78.8145 1019.19 81.4805C1016.73 84.0781 1014.78 87.2227 1013.34 90.9141C1011.91 94.5371 1011.19 98.6045 1011.19 103.116C1011.19 107.354 1011.91 111.285 1013.34 114.908C1014.78 118.531 1016.73 121.676 1019.19 124.342C1021.72 127.008 1024.66 129.127 1028.01 130.699C1031.43 132.203 1035.05 132.955 1038.88 132.955C1042.71 132.955 1046.29 132.237 1049.64 130.802C1053.06 129.366 1056.04 127.35 1058.56 124.752C1061.09 122.154 1063.08 119.01 1064.51 115.318C1066.02 111.627 1066.77 107.56 1066.77 103.116Z" fill="black"/>
</g>
<defs>
<clipPath id="clip0_2_16">
<rect width="1110" height="166" fill="white"/>
</clipPath>
</defs>
</svg>
