<svg width="500" height="500" viewBox="0 0 500 500" fill="none" xmlns="http://www.w3.org/2000/svg">
<g clip-path="url(#clip0_2_2)">
<path d="M134.547 106.007C134.547 114.451 132.95 122.399 129.757 129.851C126.563 137.231 122.199 143.688 116.664 149.224C111.129 154.688 104.636 159.017 97.1846 162.21C89.8044 165.403 81.8919 167 73.4473 167C65.0026 167 57.0547 165.403 49.6035 162.21C42.2233 159.017 35.7656 154.688 30.2305 149.224C24.7663 143.688 20.4375 137.231 17.2441 129.851C14.0508 122.399 12.4541 114.451 12.4541 106.007V14.3574H42.8975V106.007C42.8975 110.194 43.6781 114.132 45.2393 117.822C46.8714 121.512 49.0713 124.741 51.8389 127.509C54.6064 130.276 57.8353 132.476 61.5254 134.108C65.2865 135.67 69.2604 136.45 73.4473 136.45C77.6341 136.45 81.5726 135.67 85.2627 134.108C89.0238 132.476 92.2881 130.276 95.0557 127.509C97.8232 124.741 99.9876 121.512 101.549 117.822C103.181 114.132 103.997 110.194 103.997 106.007V14.3574H134.547V106.007ZM215.126 167C208.101 167 201.501 165.687 195.327 163.062C189.153 160.365 183.725 156.71 179.041 152.098C174.428 147.414 170.774 141.985 168.077 135.812C165.451 129.638 164.139 123.038 164.139 116.013V82.1631H149.981V53.21H164.139V7.65137H193.092V53.21H237.16V82.1631H193.092V116.013C193.092 119.064 193.66 121.938 194.795 124.635C195.93 127.26 197.492 129.567 199.479 131.554C201.465 133.541 203.807 135.137 206.504 136.344C209.201 137.479 212.075 138.047 215.126 138.047H237.16V167H215.126ZM363.937 167H356.911L345.628 151.353C342.86 153.836 339.915 156.178 336.793 158.378C333.742 160.507 330.513 162.387 327.106 164.02C323.7 165.581 320.188 166.823 316.568 167.745C313.02 168.668 309.401 169.129 305.711 169.129C297.692 169.129 290.134 167.781 283.038 165.084C276.013 162.387 269.839 158.484 264.517 153.375C259.265 148.195 255.114 141.879 252.062 134.428C249.011 126.977 247.485 118.496 247.485 108.987C247.485 100.117 249.011 91.9915 252.062 84.6113C255.114 77.1602 259.265 70.7734 264.517 65.4512C269.839 60.1289 276.013 56.013 283.038 53.1035C290.134 50.123 297.692 48.6328 305.711 48.6328C309.401 48.6328 313.056 49.0941 316.675 50.0166C320.294 50.9391 323.807 52.2165 327.213 53.8486C330.619 55.4808 333.848 57.3968 336.899 59.5967C340.022 61.7965 342.931 64.1738 345.628 66.7285L356.911 53.21H363.937V167ZM334.664 108.987C334.664 105.013 333.883 101.181 332.322 97.4912C330.832 93.7301 328.774 90.4303 326.148 87.5918C323.523 84.6823 320.436 82.376 316.888 80.6729C313.41 78.8988 309.685 78.0117 305.711 78.0117C301.737 78.0117 297.976 78.6859 294.428 80.0342C290.951 81.3825 287.899 83.3695 285.273 85.9951C282.719 88.6208 280.696 91.8851 279.206 95.7881C277.716 99.6201 276.971 104.02 276.971 108.987C276.971 113.955 277.716 118.39 279.206 122.293C280.696 126.125 282.719 129.354 285.273 131.979C287.899 134.605 290.951 136.592 294.428 137.94C297.976 139.289 301.737 139.963 305.711 139.963C309.685 139.963 313.41 139.111 316.888 137.408C320.436 135.634 323.523 133.328 326.148 130.489C328.774 127.58 330.832 124.28 332.322 120.59C333.883 116.829 334.664 112.961 334.664 108.987ZM415.243 167H386.184V7.65137H415.243V58C418.72 55.3743 422.304 53.5293 425.994 52.4648C429.684 51.3294 433.445 50.7617 437.277 50.7617C444.303 50.7617 450.902 52.11 457.076 54.8066C463.25 57.4323 468.608 61.0869 473.149 65.7705C477.762 70.3831 481.381 75.8118 484.007 82.0566C486.703 88.2305 488.052 94.8301 488.052 101.855V167H458.779V101.855H458.992C458.992 98.875 458.424 96.0719 457.289 93.4463C456.154 90.7497 454.592 88.4079 452.605 86.4209C450.618 84.4339 448.312 82.8727 445.687 81.7373C443.061 80.6019 440.258 80.0342 437.277 80.0342C434.226 80.0342 431.352 80.6019 428.655 81.7373C425.959 82.8727 423.617 84.4339 421.63 86.4209C419.643 88.4079 418.082 90.7497 416.946 93.4463C415.811 96.0719 415.243 98.875 415.243 101.855V167ZM136.463 252.679C136.463 259.704 135.54 266.481 133.695 273.01C131.921 279.467 129.367 285.535 126.031 291.212C122.696 296.818 118.722 301.963 114.109 306.646C109.497 311.259 104.352 315.233 98.6748 318.568C92.9977 321.904 86.8949 324.494 80.3662 326.339C73.9085 328.113 67.167 329 60.1416 329H14.1572V176.357H60.1416C67.167 176.357 73.9085 177.28 80.3662 179.125C86.8949 180.899 92.9977 183.454 98.6748 186.789C104.352 190.124 109.497 194.134 114.109 198.817C118.722 203.43 122.696 208.575 126.031 214.252C129.367 219.858 131.921 225.925 133.695 232.454C135.54 238.912 136.463 245.653 136.463 252.679ZM105.913 252.679C105.913 246.363 104.707 240.438 102.294 234.902C99.9521 229.367 96.6878 224.542 92.501 220.426C88.3851 216.239 83.5241 212.939 77.918 210.526C72.3828 208.114 66.4574 206.907 60.1416 206.907H44.9199V298.45H60.1416C66.4574 298.45 72.3828 297.279 77.918 294.938C83.5241 292.525 88.3851 289.26 92.501 285.145C96.6878 280.958 99.9521 276.097 102.294 270.562C104.707 264.955 105.913 258.994 105.913 252.679ZM199.053 301.111C200.188 301.466 201.324 301.715 202.459 301.856C203.594 301.927 204.73 301.963 205.865 301.963C208.704 301.963 211.436 301.573 214.062 300.792C216.687 300.011 219.135 298.911 221.406 297.492C223.748 296.002 225.806 294.228 227.58 292.17C229.425 290.041 230.915 287.699 232.051 285.145L253.34 306.54C250.643 310.372 247.521 313.814 243.973 316.865C240.495 319.917 236.699 322.507 232.583 324.636C228.538 326.765 224.245 328.361 219.703 329.426C215.232 330.561 210.62 331.129 205.865 331.129C197.846 331.129 190.289 329.639 183.192 326.658C176.167 323.678 169.993 319.526 164.671 314.204C159.42 308.882 155.268 302.566 152.217 295.257C149.165 287.877 147.64 279.787 147.64 270.987C147.64 261.975 149.165 253.743 152.217 246.292C155.268 238.841 159.42 232.49 164.671 227.238C169.993 221.987 176.167 217.907 183.192 214.997C190.289 212.088 197.846 210.633 205.865 210.633C210.62 210.633 215.268 211.201 219.81 212.336C224.351 213.471 228.645 215.104 232.689 217.232C236.805 219.361 240.637 221.987 244.186 225.109C247.734 228.161 250.856 231.603 253.553 235.435L199.053 301.111ZM213.955 241.183C212.607 240.686 211.258 240.367 209.91 240.225C208.633 240.083 207.285 240.012 205.865 240.012C201.891 240.012 198.13 240.757 194.582 242.247C191.105 243.666 188.053 245.724 185.428 248.421C182.873 251.118 180.851 254.382 179.36 258.214C177.87 261.975 177.125 266.233 177.125 270.987C177.125 272.052 177.16 273.258 177.231 274.606C177.373 275.955 177.551 277.339 177.764 278.758C178.048 280.106 178.367 281.419 178.722 282.696C179.076 283.974 179.538 285.109 180.105 286.103L213.955 241.183ZM299.111 329L255.682 214.997H288.786L313.694 286.103L338.496 214.997H371.707L328.277 329H299.111ZM136.037 475.353C128.941 481.455 120.993 486.139 112.193 489.403C103.394 492.668 94.2751 494.3 84.8369 494.3C77.5986 494.3 70.6087 493.342 63.8672 491.426C57.1966 489.581 50.9163 486.955 45.0264 483.549C39.2074 480.072 33.8851 475.92 29.0596 471.095C24.234 466.269 20.0827 460.947 16.6055 455.128C13.1992 449.238 10.5381 442.958 8.62207 436.287C6.77702 429.546 5.85449 422.556 5.85449 415.317C5.85449 408.079 6.77702 401.089 8.62207 394.348C10.5381 387.606 13.1992 381.326 16.6055 375.507C20.0827 369.617 24.234 364.259 29.0596 359.434C33.8851 354.608 39.2074 350.492 45.0264 347.086C50.9163 343.609 57.1966 340.948 63.8672 339.103C70.6087 337.187 77.5986 336.229 84.8369 336.229C94.2751 336.229 103.394 337.861 112.193 341.125C120.993 344.318 128.941 349.002 136.037 355.176L119.857 381.787C115.387 376.962 110.1 373.271 103.997 370.717C97.8942 368.091 91.5075 366.778 84.8369 366.778C78.0954 366.778 71.7796 368.056 65.8896 370.61C59.9997 373.165 54.8548 376.642 50.4551 381.042C46.0553 385.371 42.5781 390.516 40.0234 396.477C37.4688 402.367 36.1914 408.647 36.1914 415.317C36.1914 421.988 37.4688 428.268 40.0234 434.158C42.5781 439.977 46.0553 445.087 50.4551 449.486C54.8548 453.886 59.9997 457.363 65.8896 459.918C71.7796 462.473 78.0954 463.75 84.8369 463.75C91.5075 463.75 97.8942 462.473 103.997 459.918C110.1 457.292 115.387 453.567 119.857 448.741L136.037 475.353ZM256.853 432.987C256.853 441.503 255.327 449.451 252.275 456.831C249.224 464.14 245.073 470.492 239.821 475.885C234.57 481.207 228.396 485.429 221.3 488.552C214.274 491.603 206.717 493.129 198.627 493.129C190.608 493.129 183.05 491.603 175.954 488.552C168.929 485.429 162.755 481.207 157.433 475.885C152.181 470.492 148.03 464.14 144.979 456.831C141.927 449.451 140.401 441.503 140.401 432.987C140.401 424.33 141.927 416.311 144.979 408.931C148.03 401.55 152.181 395.199 157.433 389.877C162.755 384.484 168.929 380.261 175.954 377.21C183.05 374.159 190.608 372.633 198.627 372.633C206.717 372.633 214.274 374.088 221.3 376.997C228.396 379.836 234.57 383.916 239.821 389.238C245.073 394.49 249.224 400.841 252.275 408.292C255.327 415.672 256.853 423.904 256.853 432.987ZM227.58 432.987C227.58 428.304 226.799 424.081 225.238 420.32C223.748 416.488 221.69 413.224 219.064 410.527C216.439 407.76 213.352 405.666 209.804 404.247C206.326 402.757 202.601 402.012 198.627 402.012C194.653 402.012 190.892 402.757 187.344 404.247C183.867 405.666 180.815 407.76 178.189 410.527C175.635 413.224 173.612 416.488 172.122 420.32C170.632 424.081 169.887 428.304 169.887 432.987C169.887 437.387 170.632 441.467 172.122 445.229C173.612 448.99 175.635 452.254 178.189 455.021C180.815 457.789 183.867 459.989 187.344 461.621C190.892 463.182 194.653 463.963 198.627 463.963C202.601 463.963 206.326 463.218 209.804 461.728C213.352 460.237 216.439 458.144 219.064 455.447C221.69 452.751 223.748 449.486 225.238 445.654C226.799 441.822 227.58 437.6 227.58 432.987Z" fill="black"/>
</g>
<defs>
<clipPath id="clip0_2_2">
<rect width="500" height="500" fill="white"/>
</clipPath>
</defs>
</svg>
