<svg width="230" height="51" viewBox="0 0 230 51" fill="none" xmlns="http://www.w3.org/2000/svg">
<g clip-path="url(#clip0_47_260)">
<path d="M40.9642 0.5H20.0571V50.5L40.9642 0.5Z" fill="currentColor"/>
<path d="M55.6741 0.5H76.5539V50.5L55.6741 0.5Z" fill="currentColor"/>
<path d="M48.3191 18.9282L61.6261 50.5H52.8955L48.9184 40.4482H39.1799L48.3191 18.9282Z" fill="currentColor"/>
<path d="M110.662 32.2968L113.128 39.3657C113.209 39.5428 113.332 39.6245 113.55 39.6245H118.29C118.549 39.6245 118.589 39.5019 118.549 39.2431L108.756 12.0435C108.715 11.8255 108.674 11.7847 108.456 11.7847H102.572C102.409 11.7847 102.313 11.9073 102.313 12.0843C102.232 13.5144 102.109 13.9503 101.932 14.3725L93.2013 39.2023C93.1604 39.5019 93.2558 39.6245 93.5009 39.6245H97.7368C97.9956 39.6245 98.1182 39.5428 98.2136 39.284L100.543 32.2968H110.662ZM101.891 27.6795C103.171 23.8114 104.86 18.8536 105.541 16.0206H105.582C106.427 18.9898 108.415 24.8737 109.314 27.6795H101.891Z" fill="currentColor"/>
<path d="M131.138 40.0467C133.685 40.0467 136.396 39.5836 139.147 38.3987C139.365 38.3169 139.406 38.2216 139.406 38.0173C139.324 37.2546 139.229 36.1513 139.229 35.3069V9.70077C139.229 9.53733 139.229 9.4556 139.024 9.4556H134.407C134.23 9.4556 134.148 9.53733 134.148 9.75525V18.4314C133.426 18.3496 132.922 18.3088 132.323 18.3088C124.873 18.3088 120.296 23.2257 120.296 29.3684C120.296 36.4918 124.995 40.0467 131.138 40.0467ZM134.148 35.3069C133.385 35.552 132.541 35.6474 131.683 35.6474C128.305 35.6474 125.54 33.7405 125.54 29.1097C125.54 25.01 128.387 22.5855 132.16 22.5855C132.922 22.5855 133.59 22.6673 134.148 22.8852V35.3069Z" fill="currentColor"/>
<path d="M154.136 18.3088C147.775 18.3088 143.839 23.1848 143.839 29.205C143.839 34.585 146.972 40.0467 154.04 40.0467C160.02 40.0467 164.215 35.6474 164.215 29.0688C164.215 23.2666 160.66 18.3088 154.136 18.3088ZM153.877 22.5855C157.473 22.5855 158.998 25.6773 158.998 29.205C158.998 33.5635 156.751 35.7291 154.136 35.7291C150.908 35.7291 149.001 33.0187 149.001 29.1097C149.001 25.0917 151.03 22.5855 153.877 22.5855Z" fill="currentColor"/>
<path d="M168.988 9.4556C168.811 9.4556 168.689 9.53733 168.689 9.75525V38.7392C168.689 38.8618 168.811 39.0797 168.988 39.1205C171.018 39.7471 173.143 40.0467 175.335 40.0467C181.614 40.0467 187.716 36.1513 187.716 28.3061C187.716 22.6264 183.821 18.3088 177.719 18.3088C176.316 18.3088 175.009 18.5267 173.864 18.9081L173.81 9.79611C173.81 9.49647 173.728 9.4556 173.429 9.4556H168.988ZM182.5 28.8236C182.5 33.5226 179.285 35.7291 175.812 35.7291C175.09 35.7291 174.45 35.6882 173.864 35.5112V23.144C174.532 22.8852 175.335 22.6673 176.82 22.6673C180.171 22.6673 182.5 24.792 182.5 28.8236Z" fill="currentColor"/>
<path d="M204.948 30.3491C207.018 30.3491 208.721 30.3082 209.306 30.172C209.524 30.1312 209.606 30.0494 209.647 29.8724C209.769 29.4093 209.824 28.4423 209.824 27.2573C209.824 23.2257 207.399 18.3088 201.134 18.3088C194.733 18.3088 191.178 23.5253 191.178 29.4093C191.178 34.6259 193.929 40.0467 201.638 40.0467C204.526 40.0467 206.392 39.5836 207.999 38.8209C208.162 38.7392 208.244 38.603 208.244 38.3578V34.8302C208.244 34.6259 208.121 34.585 207.999 34.6667C206.392 35.3477 204.648 35.6882 202.741 35.6882C198.424 35.6882 196.462 33.3047 196.34 30.3491H204.948ZM196.34 26.6989C196.68 24.6286 197.988 22.3812 200.916 22.3812C204.144 22.3812 204.989 25.0917 204.989 26.3175C204.989 26.3584 204.989 26.5354 204.989 26.658C204.812 26.6989 204.267 26.6989 202.66 26.6989H196.34Z" fill="currentColor"/>
</g>
<defs>
<clipPath id="clip0_47_260">
<rect width="189.767" height="50" fill="white" transform="translate(20.0571 0.5)"/>
</clipPath>
</defs>
</svg>
