<svg width="231" height="51" viewBox="0 0 231 51" fill="none" xmlns="http://www.w3.org/2000/svg">
<g clip-path="url(#clip0_47_260)">
<path d="M41.4642 0.5H20.5571V50.5L41.4642 0.5Z" fill="currentColor"/>
<path d="M56.1741 0.5H77.0539V50.5L56.1741 0.5Z" fill="currentColor"/>
<path d="M48.8191 18.9282L62.1261 50.5H53.3955L49.4184 40.4482H39.6799L48.8191 18.9282Z" fill="currentColor"/>
<path d="M111.162 32.2968L113.628 39.3657C113.709 39.5428 113.832 39.6245 114.05 39.6245H118.79C119.049 39.6245 119.089 39.5019 119.049 39.2431L109.256 12.0435C109.215 11.8255 109.174 11.7847 108.956 11.7847H103.072C102.909 11.7847 102.813 11.9073 102.813 12.0843C102.732 13.5144 102.609 13.9503 102.432 14.3725L93.7013 39.2023C93.6604 39.5019 93.7558 39.6245 94.0009 39.6245H98.2368C98.4956 39.6245 98.6182 39.5428 98.7136 39.284L101.043 32.2968H111.162ZM102.391 27.6795C103.671 23.8114 105.36 18.8536 106.041 16.0206H106.082C106.927 18.9898 108.915 24.8737 109.814 27.6795H102.391Z" fill="currentColor"/>
<path d="M131.638 40.0467C134.185 40.0467 136.896 39.5836 139.647 38.3987C139.865 38.3169 139.906 38.2216 139.906 38.0173C139.824 37.2546 139.729 36.1513 139.729 35.3069V9.70077C139.729 9.53733 139.729 9.4556 139.524 9.4556H134.907C134.73 9.4556 134.648 9.53733 134.648 9.75525V18.4314C133.926 18.3496 133.422 18.3088 132.823 18.3088C125.373 18.3088 120.796 23.2257 120.796 29.3684C120.796 36.4918 125.495 40.0467 131.638 40.0467ZM134.648 35.3069C133.885 35.552 133.041 35.6474 132.183 35.6474C128.805 35.6474 126.04 33.7405 126.04 29.1097C126.04 25.01 128.887 22.5855 132.66 22.5855C133.422 22.5855 134.09 22.6673 134.648 22.8852V35.3069Z" fill="currentColor"/>
<path d="M154.636 18.3088C148.275 18.3088 144.339 23.1848 144.339 29.205C144.339 34.585 147.472 40.0467 154.54 40.0467C160.52 40.0467 164.715 35.6474 164.715 29.0688C164.715 23.2666 161.16 18.3088 154.636 18.3088ZM154.377 22.5855C157.973 22.5855 159.498 25.6773 159.498 29.205C159.498 33.5635 157.251 35.7291 154.636 35.7291C151.408 35.7291 149.501 33.0187 149.501 29.1097C149.501 25.0917 151.53 22.5855 154.377 22.5855Z" fill="currentColor"/>
<path d="M169.488 9.4556C169.311 9.4556 169.189 9.53733 169.189 9.75525V38.7392C169.189 38.8618 169.311 39.0797 169.488 39.1205C171.518 39.7471 173.643 40.0467 175.835 40.0467C182.114 40.0467 188.216 36.1513 188.216 28.3061C188.216 22.6264 184.321 18.3088 178.219 18.3088C176.816 18.3088 175.509 18.5267 174.364 18.9081L174.31 9.79611C174.31 9.49647 174.228 9.4556 173.929 9.4556H169.488ZM183 28.8236C183 33.5226 179.785 35.7291 176.312 35.7291C175.59 35.7291 174.95 35.6882 174.364 35.5112V23.144C175.032 22.8852 175.835 22.6673 177.32 22.6673C180.671 22.6673 183 24.792 183 28.8236Z" fill="currentColor"/>
<path d="M205.448 30.3491C207.518 30.3491 209.221 30.3082 209.806 30.172C210.024 30.1312 210.106 30.0494 210.147 29.8724C210.269 29.4093 210.324 28.4423 210.324 27.2573C210.324 23.2257 207.899 18.3088 201.634 18.3088C195.233 18.3088 191.678 23.5253 191.678 29.4093C191.678 34.6259 194.429 40.0467 202.138 40.0467C205.026 40.0467 206.892 39.5836 208.499 38.8209C208.662 38.7392 208.744 38.603 208.744 38.3578V34.8302C208.744 34.6259 208.621 34.585 208.499 34.6667C206.892 35.3477 205.148 35.6882 203.241 35.6882C198.924 35.6882 196.962 33.3047 196.84 30.3491H205.448ZM196.84 26.6989C197.18 24.6286 198.488 22.3812 201.416 22.3812C204.644 22.3812 205.489 25.0917 205.489 26.3175C205.489 26.3584 205.489 26.5354 205.489 26.658C205.312 26.6989 204.767 26.6989 203.16 26.6989H196.84Z" fill="currentColor"/>
</g>
<defs>
<clipPath id="clip0_47_260">
<rect width="189.767" height="50" fill="white" transform="translate(20.5571 0.5)"/>
</clipPath>
</defs>
</svg>
