<svg width="216" height="57" viewBox="0 0 216 57" fill="none" xmlns="http://www.w3.org/2000/svg">
<g clip-path="url(#clip0_47_272)">
<path d="M33.6299 42.8431C39.8602 42.8431 43.1776 39.9019 43.1776 35.0392C43.1776 31.9804 41.3167 29.7059 38.5251 28.7647C41.1144 27.7451 42.6922 25.5098 42.6922 22.5686C42.6922 18.2941 39.7792 15 33.1848 15H21.5737V42.8431H33.6299ZM33.5894 30.9216C36.5832 30.9216 38.2419 32.3334 38.2419 34.7254C38.2419 37.2352 36.5832 38.5294 33.5489 38.5294H26.3881V30.9216H33.5894ZM33.2253 19.3137C36.3405 19.3137 37.7565 20.7647 37.7565 22.9608C37.7565 25.4706 35.9763 26.5686 33.2253 26.5686H26.3881V19.3137H33.2253Z" fill="currentColor"/>
<path d="M55.5967 43.3137C62.3126 43.3137 66.5201 38.4117 66.5201 32.6863C66.5201 26.9608 62.3126 22.0196 55.5967 22.0196C48.9214 22.0196 44.7139 26.9608 44.7139 32.6863C44.7139 38.4117 48.9214 43.3137 55.5967 43.3137ZM49.5283 32.6863C49.5283 28.7255 52.1174 26.1373 55.5967 26.1373C59.1164 26.1373 61.7057 28.7255 61.7057 32.6863C61.7057 36.6078 59.1164 39.196 55.5967 39.196C52.1174 39.196 49.5283 36.6078 49.5283 32.6863Z" fill="currentColor"/>
<path d="M78.4643 43.3137C85.1801 43.3137 89.3876 38.4117 89.3876 32.6863C89.3876 26.9608 85.1801 22.0196 78.4643 22.0196C71.789 22.0196 67.5815 26.9608 67.5815 32.6863C67.5815 38.4117 71.789 43.3137 78.4643 43.3137ZM72.3958 32.6863C72.3958 28.7255 74.9851 26.1373 78.4643 26.1373C81.9841 26.1373 84.5734 28.7255 84.5734 32.6863C84.5734 36.6078 81.9841 39.196 78.4643 39.196C74.9851 39.196 72.3958 36.6078 72.3958 32.6863Z" fill="currentColor"/>
<path d="M110.111 31.1568C110.111 27.8627 111.972 26.0196 114.844 26.0196C117.757 26.0196 118.809 28.0196 118.809 30.6471V42.8431H123.623V30.0588C123.623 25.4314 121.034 22.0196 115.977 22.0196C112.741 22.0196 110.475 23.2745 108.857 25.2353C107.683 23.2745 105.58 22.0196 102.545 22.0196C99.1874 22.0196 97.1645 23.5882 96.2746 25.1961V22.4902H91.8242V42.8431H96.6386V31C96.6386 27.902 98.4592 26.0196 101.332 26.0196C104.204 26.0196 105.296 27.9804 105.296 30.6471V42.8431H110.111V31.1568Z" fill="currentColor"/>
<path d="M132.597 27.4706V19.3921H139.636C142.833 19.3921 144.289 21.0392 144.289 23.4706C144.289 25.902 142.833 27.4706 139.636 27.4706H132.597ZM132.597 31.8627H139.596C146.271 31.8627 149.225 28.2157 149.225 23.4706C149.225 18.7255 146.433 15 139.596 15H127.702V42.8431H132.597V31.8627Z" fill="currentColor"/>
<path d="M159.433 43.3137C166.149 43.3137 170.356 38.4117 170.356 32.6863C170.356 26.9608 166.149 22.0196 159.433 22.0196C152.758 22.0196 148.55 26.9608 148.55 32.6863C148.55 38.4117 152.758 43.3137 159.433 43.3137ZM153.365 32.6863C153.365 28.7255 155.954 26.1373 159.433 26.1373C162.953 26.1373 165.542 28.7255 165.542 32.6863C165.542 36.6078 162.953 39.196 159.433 39.196C155.954 39.196 153.365 36.6078 153.365 32.6863Z" fill="currentColor"/>
<path d="M177.608 40.1764C178.781 41.9412 181.086 43.3137 184.323 43.3137C190.553 43.3137 194.073 38.4901 194.073 32.6863C194.073 26.8431 190.553 22.0196 184.323 22.0196C181.086 22.0196 178.619 23.3137 177.243 25.3921V22.4902H172.793V51H177.608V40.1764ZM177.446 32.6863C177.446 28.9216 179.67 26.0588 183.353 26.0588C186.993 26.0588 189.258 28.9216 189.258 32.6863C189.258 36.3333 186.993 39.196 183.353 39.196C179.67 39.196 177.446 36.3333 177.446 32.6863Z" fill="currentColor"/>
</g>
<defs>
<clipPath id="clip0_47_272">
<rect width="172.5" height="36" fill="white" transform="translate(21.5737 15)"/>
</clipPath>
</defs>
</svg>
