<svg width="223" height="57" viewBox="0 0 223 57" fill="none" xmlns="http://www.w3.org/2000/svg">
<g clip-path="url(#clip0_47_272)">
<path d="M37.6299 42.8431C43.8602 42.8431 47.1776 39.9019 47.1776 35.0392C47.1776 31.9804 45.3167 29.7059 42.5251 28.7647C45.1144 27.7451 46.6922 25.5098 46.6922 22.5686C46.6922 18.2941 43.7792 15 37.1848 15H25.5737V42.8431H37.6299ZM37.5894 30.9216C40.5832 30.9216 42.2419 32.3334 42.2419 34.7254C42.2419 37.2352 40.5832 38.5294 37.5489 38.5294H30.3881V30.9216H37.5894ZM37.2253 19.3137C40.3405 19.3137 41.7565 20.7647 41.7565 22.9608C41.7565 25.4706 39.9763 26.5686 37.2253 26.5686H30.3881V19.3137H37.2253Z" fill="currentColor"/>
<path d="M59.5967 43.3137C66.3126 43.3137 70.5201 38.4117 70.5201 32.6863C70.5201 26.9608 66.3126 22.0196 59.5967 22.0196C52.9214 22.0196 48.7139 26.9608 48.7139 32.6863C48.7139 38.4117 52.9214 43.3137 59.5967 43.3137ZM53.5283 32.6863C53.5283 28.7255 56.1174 26.1373 59.5967 26.1373C63.1164 26.1373 65.7057 28.7255 65.7057 32.6863C65.7057 36.6078 63.1164 39.196 59.5967 39.196C56.1174 39.196 53.5283 36.6078 53.5283 32.6863Z" fill="currentColor"/>
<path d="M82.4643 43.3137C89.1801 43.3137 93.3876 38.4117 93.3876 32.6863C93.3876 26.9608 89.1801 22.0196 82.4643 22.0196C75.789 22.0196 71.5815 26.9608 71.5815 32.6863C71.5815 38.4117 75.789 43.3137 82.4643 43.3137ZM76.3958 32.6863C76.3958 28.7255 78.9851 26.1373 82.4643 26.1373C85.9841 26.1373 88.5734 28.7255 88.5734 32.6863C88.5734 36.6078 85.9841 39.196 82.4643 39.196C78.9851 39.196 76.3958 36.6078 76.3958 32.6863Z" fill="currentColor"/>
<path d="M114.111 31.1568C114.111 27.8627 115.972 26.0196 118.844 26.0196C121.757 26.0196 122.809 28.0196 122.809 30.6471V42.8431H127.623V30.0588C127.623 25.4314 125.034 22.0196 119.977 22.0196C116.741 22.0196 114.475 23.2745 112.857 25.2353C111.683 23.2745 109.58 22.0196 106.545 22.0196C103.187 22.0196 101.165 23.5882 100.275 25.1961V22.4902H95.8242V42.8431H100.639V31C100.639 27.902 102.459 26.0196 105.332 26.0196C108.204 26.0196 109.296 27.9804 109.296 30.6471V42.8431H114.111V31.1568Z" fill="currentColor"/>
<path d="M136.597 27.4706V19.3921H143.636C146.833 19.3921 148.289 21.0392 148.289 23.4706C148.289 25.902 146.833 27.4706 143.636 27.4706H136.597ZM136.597 31.8627H143.596C150.271 31.8627 153.225 28.2157 153.225 23.4706C153.225 18.7255 150.433 15 143.596 15H131.702V42.8431H136.597V31.8627Z" fill="currentColor"/>
<path d="M163.433 43.3137C170.149 43.3137 174.356 38.4117 174.356 32.6863C174.356 26.9608 170.149 22.0196 163.433 22.0196C156.758 22.0196 152.55 26.9608 152.55 32.6863C152.55 38.4117 156.758 43.3137 163.433 43.3137ZM157.365 32.6863C157.365 28.7255 159.954 26.1373 163.433 26.1373C166.953 26.1373 169.542 28.7255 169.542 32.6863C169.542 36.6078 166.953 39.196 163.433 39.196C159.954 39.196 157.365 36.6078 157.365 32.6863Z" fill="currentColor"/>
<path d="M181.608 40.1764C182.781 41.9412 185.086 43.3137 188.323 43.3137C194.553 43.3137 198.073 38.4901 198.073 32.6863C198.073 26.8431 194.553 22.0196 188.323 22.0196C185.086 22.0196 182.619 23.3137 181.243 25.3921V22.4902H176.793V51H181.608V40.1764ZM181.446 32.6863C181.446 28.9216 183.67 26.0588 187.353 26.0588C190.993 26.0588 193.258 28.9216 193.258 32.6863C193.258 36.3333 190.993 39.196 187.353 39.196C183.67 39.196 181.446 36.3333 181.446 32.6863Z" fill="currentColor"/>
</g>
<defs>
<clipPath id="clip0_47_272">
<rect width="172.5" height="36" fill="white" transform="translate(25.5737 15)"/>
</clipPath>
</defs>
</svg>
