<svg width="162" height="51" viewBox="0 0 162 51" fill="none" xmlns="http://www.w3.org/2000/svg">
<g clip-path="url(#clip0_47_289)">
<path d="M124.351 10.1057C116.864 10.1057 110.619 15.4266 109.192 22.4935V10.1057L93.6813 25.5717L78.2148 10.1057V22.4935C76.7874 15.4265 70.5428 10.1057 63.0551 10.1057C55.5684 10.1057 49.3244 15.4255 47.8963 22.4911C47.3429 19.7554 46.0681 17.2811 44.2782 15.2762C41.4456 12.1036 37.3253 10.1057 32.7378 10.1057H22.4844V41.0385H32.7378C37.3251 41.0385 41.4454 39.0406 44.2779 35.8682C46.0679 33.8634 47.3428 31.389 47.8963 28.653C49.3245 35.7187 55.5684 41.0385 63.0551 41.0385C70.5428 41.0385 76.7874 35.7175 78.2148 28.6506V41.0385H83.3405V22.5412L93.6813 32.8816L103.977 22.5412V41.0383H109.192V28.6504C110.619 35.7174 116.864 41.0383 124.351 41.0383C132.893 41.0383 139.818 34.1137 139.818 25.572C139.818 17.0301 132.893 10.1057 124.351 10.1057ZM33.4096 35.868H27.6101V15.276H33.4134C38.7978 15.6243 43.0582 20.0993 43.0582 25.5719C43.0582 31.0458 38.7959 35.5217 33.4096 35.868ZM63.0551 35.8922C57.3554 35.8922 52.7348 31.2716 52.7348 25.5719C52.7348 19.8721 57.3554 15.2515 63.0551 15.2515C68.7549 15.2515 73.3755 19.8721 73.3755 25.5719C73.3755 31.2716 68.7549 35.8922 63.0551 35.8922ZM124.351 35.8922C118.652 35.8922 114.031 31.2716 114.031 25.5719C114.031 19.8721 118.652 15.2515 124.351 15.2515C130.051 15.2515 134.672 19.8721 134.672 25.5719C134.672 31.2716 130.051 35.8922 124.351 35.8922Z" fill="currentColor"/>
</g>
<defs>
<clipPath id="clip0_47_289">
<rect width="117.333" height="33" fill="white" transform="translate(22.4844 9)"/>
</clipPath>
</defs>
</svg>
