<svg width="187" height="51" viewBox="0 0 187 51" fill="none" xmlns="http://www.w3.org/2000/svg">
<g clip-path="url(#clip0_47_289)">
<path d="M136.852 10.1057C129.364 10.1057 123.12 15.4266 121.692 22.4935V10.1057L106.182 25.5717L90.7152 10.1057V22.4935C89.2879 15.4265 83.0433 10.1057 75.5556 10.1057C68.0689 10.1057 61.8249 15.4255 60.3968 22.4911C59.8434 19.7554 58.5686 17.2811 56.7786 15.2762C53.9461 12.1036 49.8258 10.1057 45.2383 10.1057H34.9849V41.0385H45.2383C49.8256 41.0385 53.9459 39.0406 56.7783 35.8682C58.5684 33.8634 59.8432 31.389 60.3968 28.653C61.825 35.7187 68.0689 41.0385 75.5556 41.0385C83.0433 41.0385 89.2879 35.7175 90.7152 28.6506V41.0385H95.841V22.5412L106.182 32.8816L116.478 22.5412V41.0383H121.692V28.6504C123.12 35.7174 129.364 41.0383 136.852 41.0383C145.394 41.0383 152.318 34.1137 152.318 25.572C152.318 17.0301 145.394 10.1057 136.852 10.1057ZM45.9101 35.868H40.1106V15.276H45.9139C51.2983 15.6243 55.5587 20.0993 55.5587 25.5719C55.5587 31.0458 51.2964 35.5217 45.9101 35.868ZM75.5556 35.8922C69.8559 35.8922 65.2353 31.2716 65.2353 25.5719C65.2353 19.8721 69.8559 15.2515 75.5556 15.2515C81.2554 15.2515 85.876 19.8721 85.876 25.5719C85.876 31.2716 81.2554 35.8922 75.5556 35.8922ZM136.852 35.8922C131.152 35.8922 126.532 31.2716 126.532 25.5719C126.532 19.8721 131.152 15.2515 136.852 15.2515C142.551 15.2515 147.172 19.8721 147.172 25.5719C147.172 31.2716 142.551 35.8922 136.852 35.8922Z" fill="currentColor"/>
</g>
<defs>
<clipPath id="clip0_47_289">
<rect width="117.333" height="33" fill="white" transform="translate(34.9849 9)"/>
</clipPath>
</defs>
</svg>
