<svg width="332" height="51" viewBox="0 0 332 51" fill="none" xmlns="http://www.w3.org/2000/svg">
<path d="M47.6852 1.09378C34.2141 1.09378 23.2964 12.0205 23.2964 25.5029C23.2964 38.9853 34.2141 49.912 47.6852 49.912C61.1563 49.912 72.074 38.9853 72.074 25.5029C72.074 12.0205 61.1563 1.09378 47.6852 1.09378ZM47.6852 47.6359C35.4879 47.6359 25.5707 37.7046 25.5707 25.5029C25.5707 13.2954 35.4937 3.36995 47.6852 3.36995C59.8825 3.36995 69.7997 13.3013 69.7997 25.5029C69.7997 37.7046 59.8767 47.6359 47.6852 47.6359Z" fill="currentColor"/>
<path d="M35.9355 36.2376L41.3042 33.1348V39.1832L64.9834 25.5029L41.3042 11.8226V17.8711L35.9355 14.7682V36.2376ZM43.7588 22.1207L49.6045 25.4971L43.7588 28.8735V22.1207ZM43.7588 31.7143L43.8286 31.6736L54.5136 25.4971L43.7588 19.2798V16.0722L60.0684 25.4971L43.7588 34.9219V31.7143ZM38.3901 19.0237L41.2984 20.7061V30.2997L38.3901 31.9821V19.0237Z" fill="currentColor"/>
<path d="M85.877 16.928H92.979C97.1262 16.928 99.6331 19.3904 99.6331 22.9415V22.9939C99.6331 27.0223 96.5038 29.1064 92.6067 29.1064H89.7042V34.3282H85.8828V16.928H85.877ZM92.7289 25.7008C94.6425 25.7008 95.7593 24.5598 95.7593 23.0637V23.0114C95.7593 21.294 94.5669 20.3743 92.6532 20.3743H89.6984V25.695H92.7289V25.7008Z" fill="currentColor"/>
<path d="M106.933 16.928H110.754V30.847H119.421V34.3282H106.927V16.928H106.933Z" fill="currentColor"/>
<path d="M126 26.8709V16.928H129.821V26.772C129.821 29.607 131.234 31.074 133.573 31.074C135.911 31.074 137.324 29.6594 137.324 26.9V16.9338H141.152V26.7487C141.152 32.0171 138.197 34.6018 133.526 34.6018C128.855 34.6018 126 31.9938 126 26.8709Z" fill="currentColor"/>
<path d="M149.516 16.928H157.461C159.671 16.928 161.387 17.5509 162.527 18.6919C163.493 19.664 164.016 21.0263 164.016 22.6679V22.7203C164.016 25.5262 162.504 27.2959 160.294 28.1167L164.54 34.3282H160.073L156.35 28.7629H153.343V34.3282H149.521V16.928H149.516ZM157.211 25.3807C159.072 25.3807 160.142 24.3852 160.142 22.9182V22.8658C160.142 21.2242 159.002 20.3801 157.135 20.3801H153.337V25.3748H157.211V25.3807Z" fill="currentColor"/>
<path d="M177.894 16.8057H181.419L188.87 34.3282H184.874L183.286 30.4278H175.934L174.346 34.3282H170.449L177.9 16.8057H177.894ZM181.919 27.0456L179.61 21.4046L177.301 27.0456H181.919Z" fill="currentColor"/>
<path d="M196.019 16.928H199.84V30.847H208.507V34.3282H196.013V16.928H196.019Z" fill="currentColor"/>
<path d="M214.667 31.79L216.929 29.0831C218.494 30.3754 220.134 31.1962 222.118 31.1962C223.682 31.1962 224.624 30.5733 224.624 29.5546V29.508C224.624 28.5359 224.031 28.041 221.123 27.2959C217.621 26.3994 215.359 25.433 215.359 21.9751V21.9227C215.359 18.7675 217.895 16.6777 221.443 16.6777C223.979 16.6777 226.137 17.4752 227.899 18.8898L225.91 21.7714C224.369 20.7003 222.856 20.0541 221.39 20.0541C219.925 20.0541 219.157 20.7235 219.157 21.5676V21.62C219.157 22.761 219.901 23.1336 222.909 23.9078C226.433 24.8276 228.423 26.0967 228.423 29.1296V29.182C228.423 32.6341 225.788 34.5726 222.042 34.5726C219.413 34.5726 216.755 33.6529 214.667 31.79Z" fill="currentColor"/>
<path d="M236.392 16.928H240.213V34.3282H236.392V16.928Z" fill="currentColor"/>
<path d="M248.263 25.6776V25.6252C248.263 20.677 252.114 16.6253 257.378 16.6253C260.507 16.6253 262.392 17.4694 264.206 19.012L261.798 21.9169C260.455 20.7992 259.268 20.153 257.256 20.153C254.475 20.153 252.265 22.6155 252.265 25.5728V25.6252C252.265 28.8095 254.452 31.1438 257.529 31.1438C258.919 31.1438 260.164 30.7946 261.129 30.1018V27.6161H257.279V24.3095H264.829V31.8657C263.043 33.3793 260.583 34.625 257.401 34.625C251.986 34.625 248.263 30.8237 248.263 25.6776Z" fill="currentColor"/>
<path d="M272.966 16.928H276.788V23.8147H283.843V16.928H287.665V34.3282H283.843V27.3425H276.788V34.3282H272.966V16.928Z" fill="currentColor"/>
<path d="M300.357 20.4558H295.069V16.928H309.471V20.4558H304.184V34.3223H300.362V20.4558H300.357Z" fill="currentColor"/>
</svg>
