<svg width="294" height="51" viewBox="0 0 294 51" fill="none" xmlns="http://www.w3.org/2000/svg">
<path d="M28.1852 1.09378C14.7141 1.09378 3.79639 12.0205 3.79639 25.5029C3.79639 38.9853 14.7141 49.912 28.1852 49.912C41.6563 49.912 52.574 38.9853 52.574 25.5029C52.574 12.0205 41.6563 1.09378 28.1852 1.09378ZM28.1852 47.6359C15.9879 47.6359 6.07066 37.7046 6.07066 25.5029C6.07066 13.2954 15.9937 3.36995 28.1852 3.36995C40.3825 3.36995 50.2997 13.3013 50.2997 25.5029C50.2997 37.7046 40.3767 47.6359 28.1852 47.6359Z" fill="currentColor"/>
<path d="M16.4355 36.2376L21.8042 33.1348V39.1832L45.4834 25.5029L21.8042 11.8226V17.8711L16.4355 14.7682V36.2376ZM24.2588 22.1207L30.1045 25.4971L24.2588 28.8735V22.1207ZM24.2588 31.7143L24.3286 31.6736L35.0136 25.4971L24.2588 19.2798V16.0722L40.5684 25.4971L24.2588 34.9219V31.7143ZM18.8901 19.0237L21.7984 20.7061V30.2997L18.8901 31.9821V19.0237Z" fill="currentColor"/>
<path d="M66.377 16.928H73.479C77.6262 16.928 80.1331 19.3904 80.1331 22.9415V22.9939C80.1331 27.0223 77.0038 29.1064 73.1067 29.1064H70.2042V34.3282H66.3828V16.928H66.377ZM73.2289 25.7008C75.1425 25.7008 76.2593 24.5598 76.2593 23.0637V23.0114C76.2593 21.294 75.0669 20.3743 73.1532 20.3743H70.1984V25.695H73.2289V25.7008Z" fill="currentColor"/>
<path d="M87.4326 16.928H91.254V30.847H99.9207V34.3282H87.4268V16.928H87.4326Z" fill="currentColor"/>
<path d="M106.5 26.8709V16.928H110.321V26.772C110.321 29.607 111.734 31.074 114.073 31.074C116.411 31.074 117.824 29.6594 117.824 26.9V16.9338H121.652V26.7487C121.652 32.0171 118.697 34.6018 114.026 34.6018C109.355 34.6018 106.5 31.9938 106.5 26.8709Z" fill="currentColor"/>
<path d="M130.016 16.928H137.961C140.171 16.928 141.887 17.5509 143.027 18.6919C143.993 19.664 144.516 21.0263 144.516 22.6679V22.7203C144.516 25.5262 143.004 27.2959 140.794 28.1167L145.04 34.3282H140.573L136.85 28.7629H133.843V34.3282H130.021V16.928H130.016ZM137.711 25.3807C139.572 25.3807 140.642 24.3852 140.642 22.9182V22.8658C140.642 21.2242 139.502 20.3801 137.635 20.3801H133.837V25.3748H137.711V25.3807Z" fill="currentColor"/>
<path d="M158.394 16.8057H161.919L169.37 34.3282H165.374L163.786 30.4278H156.434L154.846 34.3282H150.949L158.4 16.8057H158.394ZM162.419 27.0456L160.11 21.4046L157.801 27.0456H162.419Z" fill="currentColor"/>
<path d="M176.519 16.928H180.34V30.847H189.007V34.3282H176.513V16.928H176.519Z" fill="currentColor"/>
<path d="M195.167 31.79L197.429 29.0831C198.994 30.3754 200.634 31.1962 202.618 31.1962C204.182 31.1962 205.124 30.5733 205.124 29.5546V29.508C205.124 28.5359 204.531 28.041 201.623 27.2959C198.121 26.3994 195.859 25.433 195.859 21.9751V21.9227C195.859 18.7675 198.395 16.6777 201.943 16.6777C204.479 16.6777 206.637 17.4752 208.399 18.8898L206.41 21.7714C204.869 20.7003 203.356 20.0541 201.89 20.0541C200.425 20.0541 199.657 20.7235 199.657 21.5676V21.62C199.657 22.761 200.401 23.1336 203.409 23.9078C206.933 24.8276 208.923 26.0967 208.923 29.1296V29.182C208.923 32.6341 206.288 34.5726 202.542 34.5726C199.913 34.5726 197.255 33.6529 195.167 31.79Z" fill="currentColor"/>
<path d="M216.892 16.928H220.713V34.3282H216.892V16.928Z" fill="currentColor"/>
<path d="M228.763 25.6776V25.6252C228.763 20.677 232.614 16.6253 237.878 16.6253C241.007 16.6253 242.892 17.4694 244.706 19.012L242.298 21.9169C240.955 20.7992 239.768 20.153 237.756 20.153C234.975 20.153 232.765 22.6155 232.765 25.5728V25.6252C232.765 28.8095 234.952 31.1438 238.029 31.1438C239.419 31.1438 240.664 30.7946 241.629 30.1018V27.6161H237.779V24.3095H245.329V31.8657C243.543 33.3793 241.083 34.625 237.901 34.625C232.486 34.625 228.763 30.8237 228.763 25.6776Z" fill="currentColor"/>
<path d="M253.466 16.928H257.288V23.8147H264.343V16.928H268.165V34.3282H264.343V27.3425H257.288V34.3282H253.466V16.928Z" fill="currentColor"/>
<path d="M280.857 20.4558H275.569V16.928H289.971V20.4558H284.684V34.3223H280.862V20.4558H280.857Z" fill="currentColor"/>
</svg>
