<svg width="223" height="53" viewBox="0 0 223 53" fill="none" xmlns="http://www.w3.org/2000/svg">
<g clip-path="url(#clip0_47_282)">
<path fill-rule="evenodd" clip-rule="evenodd" d="M33.2512 19.2284L38.3118 14.1503C41.6505 10.8003 47.0686 10.8003 50.4071 14.1503L69.9187 33.7209L63.7208 39.9401C60.3822 43.2902 54.9642 43.2902 51.6256 39.9401L38.1819 26.4502C37.9463 26.2138 37.6945 25.9937 37.4346 25.79C36.3217 24.82 35.0707 24.0212 33.6979 23.4506C32.5038 22.9535 31.2692 22.6355 30.002 22.4889L32.1139 20.3695L33.2512 19.2284ZM20.4817 39.4415C20.9203 40.4848 21.5539 41.4304 22.35 42.2292L34.4371 30.1005C33.641 29.2935 32.6988 28.6578 31.659 28.2258C30.6274 27.7938 29.5145 27.5655 28.3854 27.5655C27.2563 27.5655 26.1435 27.7856 25.1037 28.2176C24.064 28.6414 23.1217 29.2772 22.3256 30.0761C21.5377 30.8748 20.9041 31.8203 20.4736 32.8636C20.0431 33.9069 19.8237 35.0236 19.8237 36.1567C19.8237 37.2897 20.0512 38.4064 20.4817 39.4415Z" fill="currentColor"/>
<path fill-rule="evenodd" clip-rule="evenodd" d="M97.2438 12.1059C98.2721 12.1059 99.3005 12.25 100.267 12.5998H100.288C103.949 13.8757 106.026 16.4481 106.355 20.2963C106.663 24.0623 105.327 27.0874 101.974 29.1041C101.9 29.1484 101.829 29.1927 101.755 29.239C101.622 29.3215 101.48 29.4102 101.295 29.5157L108.601 40.7106L102.339 40.6901L95.5984 30.3388H90.3127V40.6901H84.7803L84.8009 12.1265C84.8009 12.1265 93.3155 12.1059 97.2438 12.1059ZM90.3538 17.0243V25.3382L97.2849 25.297C99.5863 25.297 100.925 23.2391 100.863 21.0577C100.802 18.8764 99.541 17.0449 97.2849 17.0449L90.3538 17.0243ZM192.324 34.4547L195.409 37.809C193.825 39.3114 192.016 40.2991 189.918 40.793C184.652 42.0483 179.491 40.0727 176.982 35.8334C172.662 28.528 177.743 19.4321 186.257 19.2468C193.146 19.0822 197.753 24.1652 196.869 30.9357C196.807 31.3267 196.589 32.0746 196.434 32.4631H181.3C182.137 35.9888 187.572 37.9737 192.324 34.4547ZM181.3 28.0227L191.617 28.0343C191.514 25.5649 189.692 24.0212 186.935 23.8566C184.241 23.6919 181.65 25.512 181.3 28.0227ZM132.043 30.2154C132.084 24.0006 127.168 19.2263 120.751 19.2263C114.355 19.2468 109.543 23.9183 109.543 30.1537C109.522 36.3891 114.314 41.1222 120.69 41.1428C127.127 41.1635 132.001 36.4508 132.043 30.2154ZM120.731 24.3916C124.042 24.3711 126.613 26.9023 126.613 30.1743C126.613 33.4464 124.001 35.9776 120.751 35.9776C117.502 35.9776 115.013 33.4669 114.972 30.1948C114.931 26.964 117.481 24.4122 120.731 24.3916ZM135.724 19.6996H141.03L141.153 32.0675C141.153 34.782 142.943 36.2039 145.679 36.0393C147.879 35.9158 149.298 34.4136 149.381 31.8206C149.483 28.2192 149.463 19.7202 149.463 19.7202H154.852C154.852 19.7202 154.954 28.1576 154.789 32.2321C154.543 37.5415 150.923 40.9988 145.72 41.1223C140.126 41.2457 135.724 37.5189 135.724 32.726V19.6996ZM173.145 40.6696V35.6894L170.451 35.9364C168.271 36.0598 167.243 35.1545 167.201 32.9936V24.6592H172.672V19.6584H167.201V13.8552H162.43L162.164 17.1869C161.935 18.9176 161.121 19.6523 159.756 19.679H158.441V24.7003H161.834C161.834 24.7003 161.792 31.5737 161.875 34.393C161.957 37.6239 163.725 39.9699 166.647 40.793C168.806 41.4105 170.966 41.1428 173.145 40.6696Z" fill="currentColor"/>
</g>
<defs>
<clipPath id="clip0_47_282">
<rect width="183.704" height="32" fill="white" transform="translate(19.8237 10.5)"/>
</clipPath>
</defs>
</svg>
