<svg width="215" height="53" viewBox="0 0 215 53" fill="none" xmlns="http://www.w3.org/2000/svg">
<g clip-path="url(#clip0_47_282)">
<path fill-rule="evenodd" clip-rule="evenodd" d="M28.7512 19.2284L33.8118 14.1503C37.1505 10.8003 42.5686 10.8003 45.9071 14.1503L65.4187 33.7209L59.2208 39.9401C55.8822 43.2902 50.4642 43.2902 47.1256 39.9401L33.6819 26.4502C33.4463 26.2138 33.1945 25.9937 32.9346 25.79C31.8217 24.82 30.5707 24.0212 29.1979 23.4506C28.0038 22.9535 26.7692 22.6355 25.502 22.4889L27.6139 20.3695L28.7512 19.2284ZM15.9817 39.4415C16.4203 40.4848 17.0539 41.4304 17.85 42.2292L29.9371 30.1005C29.141 29.2935 28.1988 28.6578 27.159 28.2258C26.1274 27.7938 25.0145 27.5655 23.8854 27.5655C22.7563 27.5655 21.6435 27.7856 20.6037 28.2176C19.564 28.6414 18.6217 29.2772 17.8256 30.0761C17.0377 30.8748 16.4041 31.8203 15.9736 32.8636C15.5431 33.9069 15.3237 35.0236 15.3237 36.1567C15.3237 37.2897 15.5512 38.4064 15.9817 39.4415Z" fill="currentColor"/>
<path fill-rule="evenodd" clip-rule="evenodd" d="M92.7438 12.1059C93.7721 12.1059 94.8005 12.25 95.7671 12.5998H95.7876C99.4485 13.8757 101.526 16.4481 101.855 20.2963C102.163 24.0623 100.827 27.0874 97.4741 29.1041C97.4003 29.1484 97.3292 29.1927 97.2549 29.239C97.1224 29.3215 96.9799 29.4102 96.7954 29.5157L104.101 40.7106L97.8387 40.6901L91.0984 30.3388H85.8127V40.6901H80.2803L80.3009 12.1265C80.3009 12.1265 88.8155 12.1059 92.7438 12.1059ZM85.8538 17.0243V25.3382L92.7849 25.297C95.0863 25.297 96.4252 23.2391 96.3635 21.0577C96.3018 18.8764 95.041 17.0449 92.7849 17.0449L85.8538 17.0243ZM187.824 34.4547L190.909 37.809C189.325 39.3114 187.516 40.2991 185.418 40.793C180.152 42.0483 174.991 40.0727 172.482 35.8334C168.162 28.528 173.243 19.4321 181.757 19.2468C188.646 19.0822 193.253 24.1652 192.369 30.9357C192.307 31.3267 192.089 32.0746 191.934 32.4631H176.8C177.637 35.9888 183.072 37.9737 187.824 34.4547ZM176.8 28.0227L187.117 28.0343C187.014 25.5649 185.192 24.0212 182.435 23.8566C179.741 23.6919 177.15 25.512 176.8 28.0227ZM127.543 30.2154C127.584 24.0006 122.668 19.2263 116.251 19.2263C109.855 19.2468 105.043 23.9183 105.043 30.1537C105.022 36.3891 109.814 41.1222 116.19 41.1428C122.627 41.1635 127.501 36.4508 127.543 30.2154ZM116.231 24.3916C119.542 24.3711 122.113 26.9023 122.113 30.1743C122.113 33.4464 119.501 35.9776 116.251 35.9776C113.002 35.9776 110.513 33.4669 110.472 30.1948C110.431 26.964 112.981 24.4122 116.231 24.3916ZM131.224 19.6996H136.53L136.653 32.0675C136.653 34.782 138.443 36.2039 141.179 36.0393C143.379 35.9158 144.798 34.4136 144.881 31.8206C144.983 28.2192 144.963 19.7202 144.963 19.7202H150.352C150.352 19.7202 150.454 28.1576 150.289 32.2321C150.043 37.5415 146.423 40.9988 141.22 41.1223C135.626 41.2457 131.224 37.5189 131.224 32.726V19.6996ZM168.645 40.6696V35.6894L165.951 35.9364C163.771 36.0598 162.743 35.1545 162.701 32.9936V24.6592H168.172V19.6584H162.701V13.8552H157.93L157.664 17.1869C157.435 18.9176 156.621 19.6523 155.256 19.679H153.941V24.7003H157.334C157.334 24.7003 157.292 31.5737 157.375 34.393C157.457 37.6239 159.225 39.9699 162.147 40.793C164.306 41.4105 166.466 41.1428 168.645 40.6696Z" fill="currentColor"/>
</g>
<defs>
<clipPath id="clip0_47_282">
<rect width="183.704" height="32" fill="white" transform="translate(15.3237 10.5)"/>
</clipPath>
</defs>
</svg>
