<svg width="266" height="51" viewBox="0 0 266 51" fill="none" xmlns="http://www.w3.org/2000/svg">
<g clip-path="url(#clip0_47_286)">
<path d="M108.156 11.5942H84.2584V16.8787H93.0815V39.4058H99.3422V16.8787H108.165V11.5942M131.528 29.9632C131.046 31.1775 130.262 32.2486 129.25 33.0748C128.238 33.9011 127.032 34.4552 125.746 34.6845C125.269 34.7699 124.785 34.8138 124.3 34.8159C123.803 34.8159 123.315 34.769 122.845 34.6845C121.56 34.4554 120.355 33.9013 119.345 33.0749C118.334 32.2485 117.552 31.1773 117.073 29.9632C116.514 28.54 116.227 27.0244 116.228 25.4953C116.228 23.9694 116.515 22.4571 117.073 21.0368C117.552 19.8215 118.334 18.7488 119.344 17.9208C120.354 17.0928 121.56 16.537 122.845 16.3061C123.807 16.1282 124.793 16.1282 125.755 16.3061C127.04 16.5361 128.245 17.0905 129.255 17.9168C130.265 18.7431 131.048 19.8138 131.528 21.0274C132.648 23.9006 132.648 27.09 131.528 29.9632ZM124.3 10.7588C120.391 10.7588 116.641 12.3119 113.877 15.0764C111.112 17.8409 109.559 21.5904 109.559 25.5C109.559 29.4096 111.112 33.1591 113.877 35.9236C116.641 38.6881 120.391 40.2412 124.3 40.2412C128.21 40.2412 131.959 38.6881 134.724 35.9236C137.488 33.1591 139.041 29.4096 139.041 25.5C139.041 21.5904 137.488 17.8409 134.724 15.0764C131.959 12.3119 128.21 10.7588 124.3 10.7588ZM139.131 11.6036H146.508L153.388 23.5524L160.269 11.5942H167.637L156.514 29.1184V39.4058H150.263V29.1184L139.131 11.5942M182.495 34.8159C182.983 34.8159 183.471 34.769 183.941 34.6845C185.226 34.4554 186.431 33.9013 187.441 33.0749C188.452 32.2485 189.234 31.1773 189.713 29.9632C190.841 27.0945 190.841 23.9055 189.713 21.0368C189.234 19.8227 188.452 18.7515 187.441 17.9251C186.431 17.0987 185.226 16.5446 183.941 16.3155C182.979 16.1429 181.993 16.1429 181.031 16.3155C179.748 16.5461 178.545 17.1009 177.536 17.9272C176.527 18.7535 175.746 19.8239 175.268 21.0368C174.71 22.457 174.423 23.9694 174.423 25.4953C174.423 27.0722 174.723 28.5834 175.268 29.9632C175.747 31.1778 176.528 32.2494 177.539 33.0759C178.55 33.9025 179.755 34.4562 181.04 34.6845C181.521 34.771 182.007 34.8149 182.495 34.8159ZM167.759 25.4953C167.759 21.587 169.311 17.8387 172.075 15.0751C174.839 12.3114 178.587 10.7588 182.495 10.7588C186.404 10.7588 190.152 12.3114 192.916 15.0751C195.679 17.8387 197.232 21.587 197.232 25.4953C197.232 29.4037 195.679 33.1519 192.916 35.9156C190.152 38.6792 186.404 40.2318 182.495 40.2318C178.587 40.2318 174.839 38.6792 172.075 35.9156C169.311 33.1519 167.759 29.4037 167.759 25.4953ZM239.911 28.4051L235.819 17.4137L231.717 28.3957H239.911M241.723 33.2672H229.896L227.615 39.387H220.651L231.914 11.5755H239.705L250.968 39.387H244.022L241.723 33.2672ZM222.49 11.5942H198.593V16.8787H207.416V39.4058H213.677V16.8787H222.481V11.5942M58.7277 7.9148C54.3714 6.5941 49.8384 5.94835 45.2866 6C40.7347 5.94835 36.2018 6.5941 31.8454 7.9148C21.8959 11.1155 15.0439 17.761 15.0439 25.4202C15.0439 36.2051 28.5602 45 45.2866 45C61.9754 45 75.5292 36.2426 75.5292 25.4202C75.5292 17.761 68.696 11.1155 58.7277 7.9148ZM45.2866 36.5993C42.7898 36.5993 40.753 31.7184 40.6403 25.5329C42.1234 25.6924 43.6815 25.73 45.2866 25.73C46.8822 25.73 48.4497 25.6549 49.9422 25.5422C49.8201 31.709 47.7833 36.5993 45.2866 36.5993ZM40.9501 20.7365C41.6071 16.3906 43.2967 13.3495 45.2866 13.3495C47.2389 13.3495 48.919 16.3906 49.623 20.7271C46.7379 20.985 43.8357 20.9881 40.9501 20.7365ZM52.2793 20.3798C51.2656 13.6217 48.5248 8.74079 45.2866 8.74079C42.0483 8.74079 39.3075 13.5841 38.2938 20.3798C32.1551 19.4036 27.8562 17.2542 27.8562 14.7105C27.8562 11.2751 35.675 8.49675 45.2866 8.49675C54.8981 8.49675 62.7263 11.2751 62.7263 14.7105C62.7263 17.2448 58.4274 19.4412 52.2887 20.3798H52.2793ZM19.4555 24.7162C19.4555 21.3935 20.7508 18.3054 22.9754 15.6116C22.9378 15.7993 22.9378 16.0058 22.9378 16.156C22.9378 20.3422 29.1891 23.8527 37.8996 25.1856V26.1242C37.8996 33.8585 40.0584 40.4289 43.0245 42.691C29.818 41.9119 19.4649 34.1682 19.4649 24.7162H19.4555ZM47.558 42.7379C50.5241 40.4664 52.6736 33.896 52.6736 26.1617V25.2231C61.384 23.9372 67.6353 20.3798 67.6353 16.2029C67.6353 16.0058 67.6353 15.8087 67.5978 15.6491C69.8149 18.1698 71.0627 21.3972 71.1176 24.7538C71.1176 34.1682 60.7645 41.9119 47.558 42.7285V42.7379Z" fill="currentColor"/>
</g>
<defs>
<clipPath id="clip0_47_286">
<rect width="235.957" height="39" fill="white" transform="translate(15.0273 6)"/>
</clipPath>
</defs>
</svg>
