<svg width="281" height="51" viewBox="0 0 281 51" fill="none" xmlns="http://www.w3.org/2000/svg">
<g clip-path="url(#clip0_47_286)">
<path d="M115.656 11.5942H91.7584V16.8787H100.582V39.4058H106.842V16.8787H115.665V11.5942M139.028 29.9632C138.546 31.1775 137.762 32.2486 136.75 33.0748C135.738 33.9011 134.532 34.4552 133.246 34.6845C132.769 34.7699 132.285 34.8138 131.8 34.8159C131.303 34.8159 130.815 34.769 130.345 34.6845C129.06 34.4554 127.855 33.9013 126.845 33.0749C125.834 32.2485 125.052 31.1773 124.573 29.9632C124.014 28.54 123.727 27.0244 123.728 25.4953C123.728 23.9694 124.015 22.4571 124.573 21.0368C125.052 19.8215 125.834 18.7488 126.844 17.9208C127.854 17.0928 129.06 16.537 130.345 16.3061C131.307 16.1282 132.293 16.1282 133.255 16.3061C134.54 16.5361 135.745 17.0905 136.755 17.9168C137.765 18.7431 138.548 19.8138 139.028 21.0274C140.148 23.9006 140.148 27.09 139.028 29.9632ZM131.8 10.7588C127.891 10.7588 124.141 12.3119 121.377 15.0764C118.612 17.8409 117.059 21.5904 117.059 25.5C117.059 29.4096 118.612 33.1591 121.377 35.9236C124.141 38.6881 127.891 40.2412 131.8 40.2412C135.71 40.2412 139.459 38.6881 142.224 35.9236C144.988 33.1591 146.541 29.4096 146.541 25.5C146.541 21.5904 144.988 17.8409 142.224 15.0764C139.459 12.3119 135.71 10.7588 131.8 10.7588ZM146.631 11.6036H154.008L160.888 23.5524L167.769 11.5942H175.137L164.014 29.1184V39.4058H157.763V29.1184L146.631 11.5942M189.995 34.8159C190.483 34.8159 190.971 34.769 191.441 34.6845C192.726 34.4554 193.931 33.9013 194.941 33.0749C195.952 32.2485 196.734 31.1773 197.213 29.9632C198.341 27.0945 198.341 23.9055 197.213 21.0368C196.734 19.8227 195.952 18.7515 194.941 17.9251C193.931 17.0987 192.726 16.5446 191.441 16.3155C190.479 16.1429 189.493 16.1429 188.531 16.3155C187.248 16.5461 186.045 17.1009 185.036 17.9272C184.027 18.7535 183.246 19.8239 182.768 21.0368C182.21 22.457 181.923 23.9694 181.923 25.4953C181.923 27.0722 182.223 28.5834 182.768 29.9632C183.247 31.1778 184.028 32.2494 185.039 33.0759C186.05 33.9025 187.255 34.4562 188.54 34.6845C189.021 34.771 189.507 34.8149 189.995 34.8159ZM175.259 25.4953C175.259 21.587 176.811 17.8387 179.575 15.0751C182.339 12.3114 186.087 10.7588 189.995 10.7588C193.904 10.7588 197.652 12.3114 200.416 15.0751C203.179 17.8387 204.732 21.587 204.732 25.4953C204.732 29.4037 203.179 33.1519 200.416 35.9156C197.652 38.6792 193.904 40.2318 189.995 40.2318C186.087 40.2318 182.339 38.6792 179.575 35.9156C176.811 33.1519 175.259 29.4037 175.259 25.4953ZM247.411 28.4051L243.319 17.4137L239.217 28.3957H247.411M249.223 33.2672H237.396L235.115 39.387H228.151L239.414 11.5755H247.205L258.468 39.387H251.522L249.223 33.2672ZM229.99 11.5942H206.093V16.8787H214.916V39.4058H221.177V16.8787H229.981V11.5942M66.2277 7.9148C61.8714 6.5941 57.3384 5.94835 52.7866 6C48.2347 5.94835 43.7018 6.5941 39.3454 7.9148C29.3959 11.1155 22.5439 17.761 22.5439 25.4202C22.5439 36.2051 36.0602 45 52.7866 45C69.4754 45 83.0292 36.2426 83.0292 25.4202C83.0292 17.761 76.196 11.1155 66.2277 7.9148ZM52.7866 36.5993C50.2898 36.5993 48.253 31.7184 48.1403 25.5329C49.6234 25.6924 51.1815 25.73 52.7866 25.73C54.3822 25.73 55.9497 25.6549 57.4422 25.5422C57.3201 31.709 55.2833 36.5993 52.7866 36.5993ZM48.4501 20.7365C49.1071 16.3906 50.7967 13.3495 52.7866 13.3495C54.7389 13.3495 56.419 16.3906 57.123 20.7271C54.2379 20.985 51.3357 20.9881 48.4501 20.7365ZM59.7793 20.3798C58.7656 13.6217 56.0248 8.74079 52.7866 8.74079C49.5483 8.74079 46.8075 13.5841 45.7938 20.3798C39.6551 19.4036 35.3562 17.2542 35.3562 14.7105C35.3562 11.2751 43.175 8.49675 52.7866 8.49675C62.3981 8.49675 70.2263 11.2751 70.2263 14.7105C70.2263 17.2448 65.9274 19.4412 59.7887 20.3798H59.7793ZM26.9555 24.7162C26.9555 21.3935 28.2508 18.3054 30.4754 15.6116C30.4378 15.7993 30.4378 16.0058 30.4378 16.156C30.4378 20.3422 36.6891 23.8527 45.3996 25.1856V26.1242C45.3996 33.8585 47.5584 40.4289 50.5245 42.691C37.318 41.9119 26.9649 34.1682 26.9649 24.7162H26.9555ZM55.058 42.7379C58.0241 40.4664 60.1736 33.896 60.1736 26.1617V25.2231C68.884 23.9372 75.1353 20.3798 75.1353 16.2029C75.1353 16.0058 75.1353 15.8087 75.0978 15.6491C77.3149 18.1698 78.5627 21.3972 78.6176 24.7538C78.6176 34.1682 68.2645 41.9119 55.058 42.7285V42.7379Z" fill="currentColor"/>
</g>
<defs>
<clipPath id="clip0_47_286">
<rect width="235.957" height="39" fill="white" transform="translate(22.5273 6)"/>
</clipPath>
</defs>
</svg>
